<svg xmlns="http://www.w3.org/2000/svg" viewBox="0 0 920 560" width="920" height="560" font-family="Segoe UI, Arial, sans-serif" role="img" aria-label="Vista previa de la demo Streamlit">
  <defs>
    <linearGradient id="bar" x1="0" y1="1" x2="0" y2="0">
      <stop offset="0" stop-color="#3d6fa5"/><stop offset="1" stop-color="#5aa9e6"/>
    </linearGradient>
  </defs>
  <rect width="920" height="560" rx="10" fill="#eef2f7"/>
  <!-- barra de ventana -->
  <rect width="920" height="38" rx="10" fill="#1e3a5f"/>
  <rect y="20" width="920" height="18" fill="#1e3a5f"/>
  <circle cx="20" cy="19" r="5" fill="#ff5f56"/><circle cx="38" cy="19" r="5" fill="#ffbd2e"/><circle cx="56" cy="19" r="5" fill="#27c93f"/>
  <rect x="90" y="10" width="500" height="18" rx="9" fill="#2c4a6e"/>
  <text x="104" y="23" fill="#9ecbf0" font-size="11">localhost:8501 — Procesador de Manifiestos</text>

  <!-- sidebar -->
  <rect x="0" y="38" width="200" height="522" fill="#f6f8fb"/>
  <text x="22" y="74" fill="#1e3a5f" font-size="14" font-weight="700">⚙️ Configuración</text>
  <text x="22" y="104" fill="#475569" font-size="11">ROE (EUR → USD)</text>
  <rect x="22" y="112" width="156" height="26" rx="5" fill="#fff" stroke="#cbd5e1"/>
  <text x="32" y="129" fill="#1a1a1a" font-size="12">1.22</text>
  <rect x="22" y="156" width="156" height="34" rx="6" fill="#1e3a5f"/>
  <text x="100" y="178" fill="#fff" font-size="12" font-weight="600" text-anchor="middle">▶ Usar ejemplo</text>
  <rect x="22" y="204" width="156" height="48" rx="6" fill="#fff" stroke="#cbd5e1" stroke-dasharray="4 3"/>
  <text x="100" y="232" fill="#94a3b8" font-size="10" text-anchor="middle">…o subí tus CSV</text>

  <!-- contenido -->
  <text x="224" y="74" fill="#1e3a5f" font-size="20" font-weight="800">🚢 Procesador de Manifiestos Marítimos</text>
  <text x="224" y="96" fill="#64748b" font-size="11">Liquidación de manifiestos IMPO/EXPO en segundos</text>

  <!-- métricas -->
  <g>
    <rect x="224" y="112" width="158" height="64" rx="8" fill="#fff" stroke="#e2e8f0"/>
    <text x="240" y="134" fill="#64748b" font-size="11">Bills of Lading</text>
    <text x="240" y="162" fill="#1e3a5f" font-size="26" font-weight="800">5</text>
    <rect x="392" y="112" width="158" height="64" rx="8" fill="#fff" stroke="#e2e8f0"/>
    <text x="408" y="134" fill="#64748b" font-size="11">Reportes</text>
    <text x="408" y="162" fill="#1e3a5f" font-size="26" font-weight="800">8</text>
    <rect x="560" y="112" width="158" height="64" rx="8" fill="#fff" stroke="#e2e8f0"/>
    <text x="576" y="134" fill="#64748b" font-size="11">Manifiestos</text>
    <text x="576" y="162" fill="#1e3a5f" font-size="26" font-weight="800">2</text>
    <rect x="728" y="112" width="170" height="64" rx="8" fill="#fff" stroke="#e2e8f0"/>
    <text x="744" y="134" fill="#64748b" font-size="11">Tiempo</text>
    <text x="744" y="162" fill="#16a34a" font-size="26" font-weight="800">118 ms</text>
  </g>

  <!-- gráfico -->
  <rect x="224" y="192" width="320" height="200" rx="8" fill="#fff" stroke="#e2e8f0"/>
  <text x="240" y="214" fill="#334155" font-size="12" font-weight="700">B/Ls por tipo de carga</text>
  <line x1="248" y1="370" x2="528" y2="370" stroke="#e2e8f0"/>
  <rect x="276" y="300" width="60" height="70" rx="3" fill="url(#bar)"/>
  <rect x="436" y="250" width="60" height="120" rx="3" fill="url(#bar)"/>
  <text x="306" y="388" fill="#64748b" font-size="10" text-anchor="middle">Contenedor</text>
  <text x="466" y="388" fill="#64748b" font-size="10" text-anchor="middle">Vehículos</text>
  <text x="306" y="293" fill="#1e3a5f" font-size="11" text-anchor="middle" font-weight="700">2</text>
  <text x="466" y="243" fill="#1e3a5f" font-size="11" text-anchor="middle" font-weight="700">3</text>

  <!-- tabla -->
  <rect x="560" y="192" width="338" height="200" rx="8" fill="#fff" stroke="#e2e8f0"/>
  <text x="576" y="214" fill="#334155" font-size="12" font-weight="700">Bills of Lading (IMPO)</text>
  <rect x="568" y="226" width="322" height="22" fill="#f1f5f9"/>
  <text x="576" y="241" fill="#475569" font-size="10">B/L            Tipo            Carga             THC</text>
  <g fill="#334155" font-size="10">
    <text x="576" y="266">S329600001   Contenedor   3 High Cube     120</text>
    <text x="576" y="290">S329600002   Vehículos    5 NEW DELTAR    500</text>
    <text x="576" y="314">S329600003   Vehículos    4 NEW CORVEX     400</text>
  </g>
  <line x1="568" y1="276" x2="890" y2="276" stroke="#eef2f7"/>
  <line x1="568" y1="300" x2="890" y2="300" stroke="#eef2f7"/>

  <!-- descargas -->
  <text x="224" y="424" fill="#334155" font-size="12" font-weight="700">⬇️ Descargas</text>
  <g font-size="10" fill="#1e3a5f">
    <rect x="224" y="436" width="158" height="30" rx="5" fill="#fff" stroke="#cbd5e1"/><text x="236" y="455">ATL_0426-Impo.xlsx</text>
    <rect x="392" y="436" width="158" height="30" rx="5" fill="#fff" stroke="#cbd5e1"/><text x="404" y="455">ATL_0426-Expo.xlsx</text>
    <rect x="560" y="436" width="158" height="30" rx="5" fill="#fff" stroke="#cbd5e1"/><text x="572" y="455">ATL_0426-ENS.xlsx</text>
    <rect x="728" y="436" width="170" height="30" rx="5" fill="#1e3a5f"/><text x="746" y="455" fill="#fff">⬇ Descargar todo (.zip)</text>
  </g>
  <text x="224" y="500" fill="#94a3b8" font-size="10">Datos de ejemplo 100% sintéticos — el motor y las reglas de negocio son reales.</text>
</svg>
